<?xml version="1.0" encoding="iso-8859-1"?>
<!-- Generator: Adobe Illustrator 19.0.0, SVG Export Plug-In . SVG Version: 6.00 Build 0)  -->
<svg version="1.1" id="Layer_1" xmlns="http://www.w3.org/2000/svg" xmlns:xlink="http://www.w3.org/1999/xlink" x="0px" y="0px"
	 viewBox="0 0 512.001 512.001" style="enable-background:new 0 0 512.001 512.001;" xml:space="preserve">
<rect x="231.453" y="13.201" transform="matrix(-0.866 -0.5 0.5 -0.866 433.8964 311.4417)" style="fill:#FAC51C;" width="54.443" height="168.775"/>
<path style="fill:#747D8C;" d="M150.952,327.723c-12.573-7.26-25.147-14.518-37.72-21.778
	c42.858-38.589,72.398-89.756,84.389-146.167c12.573,7.26,25.147,14.518,37.72,21.778
	C223.352,237.966,193.81,289.133,150.952,327.723z"/>
<rect x="194.456" y="15.92" transform="matrix(-0.866 -0.5 0.5 -0.866 366.9518 244.4976)" style="fill:#FBA026;" width="43.555" height="114.331"/>
<g>
	<polygon style="fill:#EFEFEF;" points="179.686,92.842 154.945,37.695 215.075,31.547 	"/>
	<path style="fill:#EFEFEF;" d="M486.588,119.151L486.588,119.151c-35.249-0.652-138.395-14.731-173.031-62.179l0,0l-62.611,108.446
		c0.522,0.302,1.042,0.603,1.564,0.905c46.231,26.757,69.752,46.847,66.813,100.183c-1.447,26.254-2.563,75.219-2.563,75.219
		C390.485,327.709,501.064,224.743,486.588,119.151z"/>
</g>
<path style="fill:#EB4E49;" d="M97.432,422.024c17.047-31.98,36.57-62.701,58.235-91.58c-15.717-9.074-31.434-18.149-47.15-27.222
	c-39.991,40.838-69.018,91.114-84.389,146.167c29.862,17.24,59.724,34.482,89.585,51.722c10.072-17.445,20.145-34.891,30.217-52.337
	C128.431,439.858,112.932,430.941,97.432,422.024z"/>
<g>
	<path style="fill:#231F20;" d="M497.375,117.671c-0.728-5.316-5.221-9.309-10.586-9.408
		c-37.121-0.687-125.838-14.907-160.04-52.362l7.128-12.346c3.008-5.208,1.223-11.868-3.985-14.874l-47.15-27.222
		c-2.5-1.444-5.472-1.835-8.263-1.088c-2.79,0.748-5.168,2.572-6.612,5.073L259.7,19.59L231.41,3.256
		c-5.208-3.006-11.868-1.224-14.874,3.985l-8.105,14.038l-54.592,5.582c-3.478,0.356-6.575,2.36-8.322,5.388
		c-1.748,3.028-1.936,6.712-0.505,9.901l22.461,50.07l-8.105,14.038c-1.444,2.501-1.836,5.473-1.088,8.263
		c0.748,2.79,2.572,5.168,5.073,6.612l28.291,16.333l-8.167,14.146c-2.539,4.398-1.651,9.823,1.82,13.217
		c-11.884,49.109-37.258,93.06-73.843,127.907c-3.759-1.053-7.887-0.022-10.715,2.868C59.578,337.635,29.46,389.8,13.641,446.461
		c-1.337,4.787,0.738,9.873,5.044,12.358l89.585,51.722c1.67,0.964,3.55,1.459,5.444,1.459c0.943,0,1.89-0.123,2.818-0.371
		c2.79-0.748,5.168-2.572,6.612-5.073l30.217-52.337c1.446-2.503,1.836-5.479,1.086-8.271s-2.581-5.171-5.086-6.612l-37.29-21.452
		c15.574-28.182,33.142-55.354,52.308-80.904c1.869-2.492,2.582-5.666,1.957-8.717c-0.001-0.007-0.003-0.013-0.005-0.02
		c37.784-36.728,64.239-82.554,77.154-133.642c2.523-0.838,4.666-2.562,6.003-4.877l5.407-9.367
		c38.3,22.93,56.022,40.787,53.555,85.55c-1.441,26.127-2.567,75.078-2.577,75.569c-0.075,3.287,1.339,6.431,3.847,8.557
		c1.984,1.68,4.483,2.581,7.039,2.581c0.676,0,1.358-0.063,2.034-0.192c40.447-7.69,88.04-38.549,124.207-80.536
		C485.011,223.112,504.322,168.345,497.375,117.671z M281.281,25.764l28.291,16.333l-73.5,127.307l-28.291-16.333L281.281,25.764z
		 M171.051,46.994l23.946-2.449l-14.092,24.41L171.051,46.994z M202.532,118.606l-18.861-10.889l46.278-80.156l18.861,10.889
		L202.532,118.606z M87.824,416.902c-2.765,5.186-0.915,11.63,4.179,14.561l37.045,21.312l-19.319,33.462l-72.744-41.999
		c14.544-47.329,39.784-91.045,73.5-127.306l29.197,16.856C120.614,360.15,103.2,388.056,87.824,416.902z M149.441,314.276
		l-18.131-10.469c35.45-35.377,60.587-78.916,73.5-127.306l17.583,10.152l0.548,0.316
		C211.049,235.82,185.799,279.552,149.441,314.276z M426.499,257.672c-28.622,33.229-65.926,59.475-98.49,69.93
		c0.443-16.5,1.249-43.474,2.188-60.498c3.188-57.851-24.194-81.606-64.408-105.614l49.669-86.028
		c40.874,38.759,122.884,51.748,161.26,54.162C480.459,185.677,447.33,233.488,426.499,257.672z"/>
	<path style="fill:#231F20;" d="M433.691,187.307c-5.341-2.767-11.911-0.681-14.677,4.658
		c-8.231,15.885-18.419,29.041-25.516,37.282c-11.277,13.092-23.826,24.717-37.299,34.553c-4.858,3.545-5.92,10.358-2.375,15.215
		c2.132,2.922,5.444,4.469,8.804,4.469c2.227,0,4.474-0.681,6.411-2.095c14.815-10.816,28.597-23.577,40.959-37.929
		c7.856-9.121,19.153-23.72,28.353-41.475C441.118,196.644,439.031,190.074,433.691,187.307z"/>
	<path style="fill:#231F20;" d="M444.396,148.105c-5.901-1.131-11.613,2.735-12.747,8.641l-0.03,0.158
		c-1.134,5.904,2.741,11.57,8.644,12.705c0.69,0.133,1.376,0.197,2.055,0.197c5.121,0,9.697-3.653,10.703-8.867
		c0-0.003,0.016-0.086,0.017-0.089C454.171,154.945,450.302,149.239,444.396,148.105z"/>
</g>
<g>
</g>
<g>
</g>
<g>
</g>
<g>
</g>
<g>
</g>
<g>
</g>
<g>
</g>
<g>
</g>
<g>
</g>
<g>
</g>
<g>
</g>
<g>
</g>
<g>
</g>
<g>
</g>
<g>
</g>
</svg>
